{
  "accessors": [
    {
      "bufferView": 2,
      "componentType": 5126,
      "count": 4304,
      "max": [
        0.10238365083932877,
        0.06865822523832321,
        0.1616438925266266
      ],
      "min": [
        -0.06634197384119034,
        -0.06178555265069008,
        -0.07526274770498276
      ],
      "type": "VEC3"
    },
    {
      "bufferView": 2,
      "byteOffset": 51648,
      "componentType": 5126,
      "count": 4304,
      "max": [
        0.9998182058334351,
        1.0,
        0.9999983906745911
      ],
      "min": [
        -0.999491810798645,
        -1.0,
        -0.9999296069145203
      ],
      "type": "VEC3"
    },
    {
      "bufferView": 3,
      "componentType": 5126,
      "count": 4304,
      "max": [
        0.9951424598693848,
        0.9999594688415527,
        1.0,
        1.0
      ],
      "min": [
        -1.0,
        -0.9999191761016846,
        -1.0,
        -1.0
      ],
      "type": "VEC4"
    },
    {
      "bufferView": 1,
      "componentType": 5126,
      "count": 4304,
      "max": [
        0.9944759607315063,
        0.5339677929878235
      ],
      "min": [
        0.47105127573013306,
        0.006007790565490723
      ],
      "type": "VEC2"
    },
    {
      "bufferView": 0,
      "componentType": 5125,
      "count": 18648,
      "type": "SCALAR"
    },
    {
      "bufferView": 2,
      "byteOffset": 103296,
      "componentType": 5126,
      "count": 88,
      "max": [
        0.00860641710460186,
        0.002354669151827693,
        -0.0013053403235971928
      ],
      "min": [
        -0.008730228058993816,
        -0.002354669151827693,
        -0.8221272826194763
      ],
      "type": "VEC3"
    },
    {
      "bufferView": 2,
      "byteOffset": 104352,
      "componentType": 5126,
      "count": 88,
      "max": [
        0.7380725145339966,
        0.9984530210494995,
        -0.0018679616041481495
      ],
      "min": [
        -0.6520805954933167,
        -0.9984530210494995,
        -0.45335114002227783
      ],
      "type": "VEC3"
    },
    {
      "bufferView": 3,
      "byteOffset": 68864,
      "componentType": 5126,
      "count": 88,
      "max": [
        0.9983137249946594,
        0.7355334758758545,
        0.7797238230705261,
        1.0
      ],
      "min": [
        -0.9983023405075073,
        -0.64710533618927,
        -0.7836328148841858,
        -1.0
      ],
      "type": "VEC4"
    },
    {
      "bufferView": 1,
      "byteOffset": 34432,
      "componentType": 5126,
      "count": 88,
      "max": [
        0.0437779575586319,
        0.9984711408615112
      ],
      "min": [
        0.0010989904403686523,
        0.0026012957096099854
      ],
      "type": "VEC2"
    },
    {
      "bufferView": 0,
      "byteOffset": 74592,
      "componentType": 5125,
      "count": 408,
      "type": "SCALAR"
    },
    {
      "bufferView": 2,
      "byteOffset": 105408,
      "componentType": 5126,
      "count": 1108,
      "max": [
        0.13303418457508087,
        0.014383134432137012,
        0.005922542419284582
      ],
      "min": [
        -0.13303418457508087,
        -0.014383134432137012,
        -0.006778318900614977
      ],
      "type": "VEC3"
    },
    {
      "bufferView": 2,
      "byteOffset": 118704,
      "componentType": 5126,
      "count": 1108,
      "max": [
        0.9999993443489075,
        1.0,
        0.9997965097427368
      ],
      "min": [
        -0.9999993443489075,
        -0.9999999403953552,
        -0.9996551275253296
      ],
      "type": "VEC3"
    },
    {
      "bufferView": 3,
      "byteOffset": 70272,
      "componentType": 5126,
      "count": 1108,
      "max": [
        0.9984904527664185,
        1.0,
        0.999945878982544,
        1.0
      ],
      "min": [
        -0.9997965693473816,
        -1.0,
        -0.9999812245368958,
        -1.0
      ],
      "type": "VEC4"
    },
    {
      "bufferView": 1,
      "byteOffset": 35136,
      "componentType": 5126,
      "count": 1108,
      "max": [
        0.6249345541000366,
        0.9879508018493652
      ],
      "min": [
        0.05989474058151245,
        0.00025393429677933455
      ],
      "type": "VEC2"
    },
    {
      "bufferView": 0,
      "byteOffset": 76224,
      "componentType": 5125,
      "count": 4542,
      "type": "SCALAR"
    },
    {
      "bufferView": 2,
      "byteOffset": 132000,
      "componentType": 5126,
      "count": 1343,
      "max": [
        0.015976659953594208,
        0.01601894572377205,
        0.14806431531906128
      ],
      "min": [
        -0.01596837118268013,
        -0.01601901650428772,
        0.004328235983848572
      ],
      "type": "VEC3"
    },
    {
      "bufferView": 2,
      "byteOffset": 148116,
      "componentType": 5126,
      "count": 1343,
      "max": [
        0.9999937415122986,
        0.9997674822807312,
        0.9997696876525879
      ],
      "min": [
        -0.9997530579566956,
        -0.9997618794441223,
        -0.9311097264289856
      ],
      "type": "VEC3"
    },
    {
      "bufferView": 3,
      "byteOffset": 88000,
      "componentType": 5126,
      "count": 1343,
      "max": [
        0.8395789265632629,
        0.9587018489837646,
        0.998632550239563,
        1.0
      ],
      "min": [
        -0.9310379028320313,
        -0.9649761915206909,
        -0.9997530579566956,
        -1.0
      ],
      "type": "VEC4"
    },
    {
      "bufferView": 1,
      "byteOffset": 44000,
      "componentType": 5126,
      "count": 1343,
      "max": [
        0.9989000558853149,
        0.9986505508422852
      ],
      "min": [
        0.2683013379573822,
        0.643390417098999
      ],
      "type": "VEC2"
    },
    {
      "bufferView": 0,
      "byteOffset": 94392,
      "componentType": 5125,
      "count": 6816,
      "type": "SCALAR"
    },
    {
      "bufferView": 2,
      "byteOffset": 164232,
      "componentType": 5126,
      "count": 285,
      "max": [
        0.057036757469177246,
        0.012320097535848618,
        0.17539623379707336
      ],
      "min": [
        0.03161376342177391,
        -0.013079485855996609,
        0.14960938692092896
      ],
      "type": "VEC3"
    },
    {
      "bufferView": 2,
      "byteOffset": 167652,
      "componentType": 5126,
      "count": 285,
      "max": [
        0.9995741248130798,
        0.9999796152114868,
        0.9999372959136963
      ],
      "min": [
        -0.9994258880615234,
        -0.999943196773529,
        -0.9999615550041199
      ],
      "type": "VEC3"
    },
    {
      "bufferView": 3,
      "byteOffset": 109488,
      "componentType": 5126,
      "count": 285,
      "max": [
        0.8086493015289307,
        0.9503369927406311,
        0.009121427312493324,
        1.0
      ],
      "min": [
        -0.9999802708625793,
        -0.9510989189147949,
        -0.9999566674232483,
        1.0
      ],
      "type": "VEC4"
    },
    {
      "bufferView": 1,
      "byteOffset": 54744,
      "componentType": 5126,
      "count": 285,
      "max": [
        0.45410817861557007,
        0.29980623722076416
      ],
      "min": [
        0.3149823546409607,
        0.005286490544676781
      ],
      "type": "VEC2"
    },
    {
      "bufferView": 0,
      "byteOffset": 121656,
      "componentType": 5125,
      "count": 1440,
      "type": "SCALAR"
    },
    {
      "bufferView": 2,
      "byteOffset": 171072,
      "componentType": 5126,
      "count": 1203,
      "max": [
        0.023252079263329506,
        0.023113107308745384,
        0.21784120798110962
      ],
      "min": [
        -0.02297411672770977,
        -0.023113097995519638,
        0.14806431531906128
      ],
      "type": "VEC3"
    },
    {
      "bufferView": 2,
      "byteOffset": 185508,
      "componentType": 5126,
      "count": 1203,
      "max": [
        0.9991477727890015,
        0.9999538064002991,
        0.9998958706855774
      ],
      "min": [
        -0.999759316444397,
        -0.9999538064002991,
        -0.9370937943458557
      ],
      "type": "VEC3"
    },
    {
      "bufferView": 3,
      "byteOffset": 114048,
      "componentType": 5126,
      "count": 1203,
      "max": [
        0.9953206181526184,
        0.9998480677604675,
        0.9630997180938721,
        1.0
      ],
      "min": [
        -0.9954847693443298,
        -1.0,
        -0.9950421452522278,
        -1.0
      ],
      "type": "VEC4"
    },
    {
      "bufferView": 1,
      "byteOffset": 57024,
      "componentType": 5126,
      "count": 1203,
      "max": [
        0.9872943162918091,
        0.6838086247444153
      ],
      "min": [
        0.4698020815849304,
        0.3196466565132141
      ],
      "type": "VEC2"
    },
    {
      "bufferView": 0,
      "byteOffset": 127416,
      "componentType": 5125,
      "count": 5952,
      "type": "SCALAR"
    }
  ],
  "asset": {
    "extras": {
      "author": "GabrielUCG (https://sketchfab.com/GabrielUCG)",
      "license": "CC-BY-4.0 (http://creativecommons.org/licenses/by/4.0/)",
      "source": "https://sketchfab.com/3d-models/antique-rapier-sword-910eb65ba53d49f3b810c0d3917a6840",
      "title": "Antique Rapier Sword"
    },
    "generator": "Sketchfab-16.53.0",
    "version": "2.0"
  },
  "bufferViews": [
    {
      "buffer": 0,
      "byteLength": 151224,
      "name": "floatBufferViews",
      "target": 34963
    },
    {
      "buffer": 0,
      "byteLength": 66648,
      "byteOffset": 151224,
      "byteStride": 8,
      "name": "floatBufferViews",
      "target": 34962
    },
    {
      "buffer": 0,
      "byteLength": 199944,
      "byteOffset": 217872,
      "byteStride": 12,
      "name": "floatBufferViews",
      "target": 34962
    },
    {
      "buffer": 0,
      "byteLength": 133296,
      "byteOffset": 417816,
      "byteStride": 16,
      "name": "floatBufferViews",
      "target": 34962
    }
  ],
  "buffers": [
    {
      "byteLength": 551112,
      "uri": "scene.bin"
    }
  ],
  "extensionsUsed": [
    "KHR_materials_specular"
  ],
  "images": [
    {
      "uri": "textures/Scene_-_Root_baseColor.png"
    },
    {
      "uri": "textures/Scene_-_Root_metallicRoughness.png"
    },
    {
      "uri": "textures/Scene_-_Root_normal.png"
    }
  ],
  "materials": [
    {
      "doubleSided": true,
      "extensions": {
        "KHR_materials_specular": {
          "specularColorFactor": [
            1.0,
            1.0,
            1.0
          ],
          "specularFactor": 0.3640769143538147
        }
      },
      "name": "Scene_-_Root",
      "normalTexture": {
        "index": 2
      },
      "occlusionTexture": {
        "index": 1
      },
      "pbrMetallicRoughness": {
        "baseColorTexture": {
          "index": 0
        },
        "metallicRoughnessTexture": {
          "index": 1
        }
      }
    }
  ],
  "meshes": [
    {
      "name": "Guard_low__0",
      "primitives": [
        {
          "attributes": {
            "NORMAL": 1,
            "POSITION": 0,
            "TANGENT": 2,
            "TEXCOORD_0": 3
          },
          "indices": 4,
          "material": 0,
          "mode": 4
        }
      ]
    },
    {
      "name": "Blade_low__0",
      "primitives": [
        {
          "attributes": {
            "NORMAL": 6,
            "POSITION": 5,
            "TANGENT": 7,
            "TEXCOORD_0": 8
          },
          "indices": 9,
          "material": 0,
          "mode": 4
        }
      ]
    },
    {
      "name": "Guard1_low__0",
      "primitives": [
        {
          "attributes": {
            "NORMAL": 11,
            "POSITION": 10,
            "TANGENT": 12,
            "TEXCOORD_0": 13
          },
          "indices": 14,
          "material": 0,
          "mode": 4
        }
      ]
    },
    {
      "name": "Handle_low__0",
      "primitives": [
        {
          "attributes": {
            "NORMAL": 16,
            "POSITION": 15,
            "TANGENT": 17,
            "TEXCOORD_0": 18
          },
          "indices": 19,
          "material": 0,
          "mode": 4
        }
      ]
    },
    {
      "name": "Guard3_low__0",
      "primitives": [
        {
          "attributes": {
            "NORMAL": 21,
            "POSITION": 20,
            "TANGENT": 22,
            "TEXCOORD_0": 23
          },
          "indices": 24,
          "material": 0,
          "mode": 4
        }
      ]
    },
    {
      "name": "Pommel_low__0",
      "primitives": [
        {
          "attributes": {
            "NORMAL": 26,
            "POSITION": 25,
            "TANGENT": 27,
            "TEXCOORD_0": 28
          },
          "indices": 29,
          "material": 0,
          "mode": 4
        }
      ]
    }
  ],
  "nodes": [
    {
      "children": [
        1
      ],
      "matrix": [
        1.0,
        0.0,
        0.0,
        0.0,
        0.0,
        2.220446049250313e-16,
        -1.0,
        0.0,
        0.0,
        1.0,
        2.220446049250313e-16,
        0.0,
        0.0,
        0.0,
        0.0,
        1.0
      ],
      "name": "Sketchfab_model"
    },
    {
      "children": [
        2
      ],
      "matrix": [
        0.009999999776482582,
        0.0,
        0.0,
        0.0,
        0.0,
        0.0,
        0.009999999776482582,
        0.0,
        0.0,
        -0.009999999776482582,
        0.0,
        0.0,
        0.0,
        0.0,
        0.0,
        1.0
      ],
      "name": "7b140c5f1b7345dab11c59af5b5bca62.fbx"
    },
    {
      "children": [
        3,
        5,
        7,
        9,
        11,
        13
      ],
      "name": "RootNode"
    },
    {
      "children": [
        4
      ],
      "matrix": [
        100.0,
        0.0,
        0.0,
        0.0,
        0.0,
        -1.629206793918314e-05,
        -99.99999999999868,
        0.0,
        0.0,
        99.99999999999868,
        -1.629206793918314e-05,
        0.0,
        0.0,
        0.0,
        0.0,
        1.0
      ],
      "name": "Guard_low"
    },
    {
      "mesh": 0,
      "name": "Guard_low__0"
    },
    {
      "children": [
        6
      ],
      "matrix": [
        100.0,
        0.0,
        0.0,
        0.0,
        0.0,
        -1.629206793918314e-05,
        -99.99999999999868,
        0.0,
        0.0,
        99.99999999999868,
        -1.629206793918314e-05,
        0.0,
        0.0,
        0.0,
        0.0,
        1.0
      ],
      "name": "Blade_low"
    },
    {
      "mesh": 1,
      "name": "Blade_low__0"
    },
    {
      "children": [
        8
      ],
      "matrix": [
        100.0,
        0.0,
        0.0,
        0.0,
        0.0,
        -1.629206793918314e-05,
        -99.99999999999868,
        0.0,
        0.0,
        99.99999999999868,
        -1.629206793918314e-05,
        0.0,
        0.0,
        0.0,
        0.0,
        1.0
      ],
      "name": "Guard1_low"
    },
    {
      "mesh": 2,
      "name": "Guard1_low__0"
    },
    {
      "children": [
        10
      ],
      "matrix": [
        100.0,
        0.0,
        0.0,
        0.0,
        0.0,
        -1.629206793918314e-05,
        -99.99999999999868,
        0.0,
        0.0,
        99.99999999999868,
        -1.629206793918314e-05,
        0.0,
        0.0,
        0.0,
        0.0,
        1.0
      ],
      "name": "Handle_low"
    },
    {
      "mesh": 3,
      "name": "Handle_low__0"
    },
    {
      "children": [
        12
      ],
      "matrix": [
        100.0,
        0.0,
        0.0,
        0.0,
        0.0,
        -1.629206793918314e-05,
        -99.99999999999868,
        0.0,
        0.0,
        99.99999999999868,
        -1.629206793918314e-05,
        0.0,
        0.0,
        0.0,
        0.0,
        1.0
      ],
      "name": "Guard3_low"
    },
    {
      "mesh": 4,
      "name": "Guard3_low__0"
    },
    {
      "children": [
        14
      ],
      "matrix": [
        100.0,
        0.0,
        0.0,
        0.0,
        0.0,
        -1.629206793918314e-05,
        -99.99999999999868,
        0.0,
        0.0,
        99.99999999999868,
        -1.629206793918314e-05,
        0.0,
        0.0,
        0.0,
        0.0,
        1.0
      ],
      "name": "Pommel_low"
    },
    {
      "mesh": 5,
      "name": "Pommel_low__0"
    }
  ],
  "samplers": [
    {
      "magFilter": 9729,
      "minFilter": 9987,
      "wrapS": 10497,
      "wrapT": 10497
    }
  ],
  "scene": 0,
  "scenes": [
    {
      "name": "Sketchfab_Scene",
      "nodes": [
        0
      ]
    }
  ],
  "textures": [
    {
      "sampler": 0,
      "source": 0
    },
    {
      "sampler": 0,
      "source": 1
    },
    {
      "sampler": 0,
      "source": 2
    }
  ]
}
