<svg width="250" height="180" viewBox="0 0 250 180" fill="none" xmlns="http://www.w3.org/2000/svg">
<path d="M212.497 166.936L210.276 169.94L216.345 178.825H212.967L205.865 168.407C205.302 168.031 204.644 167.844 203.956 167.937C203.205 168 202.517 168.375 202.048 168.97L201.954 169.126C199.889 172.161 199.858 178.543 199.858 178.606V178.762H194.445L201.672 168.939C201.735 168.876 201.766 168.813 201.797 168.782L204.05 165.747L198.043 156.925H201.422L208.493 167.343C209.025 167.687 209.682 167.844 210.339 167.781C211.089 167.718 211.778 167.343 212.247 166.749L212.372 166.592V166.561C214.406 163.557 214.437 157.175 214.437 157.113V156.925H219.881L212.622 166.78C212.591 166.842 212.56 166.874 212.497 166.936Z" fill="white" stroke="white" stroke-width="0.5"/>
<path d="M168.457 157.269V167.093H175.246V167.437H168.457V178.512C171.961 178.512 175.402 177.824 178.594 176.416C180.189 175.696 181.128 175.102 181.159 175.102L181.409 174.945V178.825H165.109V156.925H181.409V160.836L181.159 160.679C181.128 160.679 180.189 160.085 178.594 159.365C175.402 157.957 171.961 157.269 168.457 157.269Z" fill="white" stroke="white" stroke-width="0.5"/>
<path d="M127.531 156.925H150.745V160.836L150.495 160.679C150.433 160.648 147.93 157.269 142.392 157.269C141.954 157.269 141.579 157.457 141.266 157.738C140.984 158.02 140.828 158.427 140.828 158.865V178.825H137.449V158.865C137.449 158.427 137.261 158.02 136.98 157.738C136.667 157.457 136.291 157.269 135.853 157.269C130.316 157.269 127.813 160.648 127.75 160.679L127.531 160.836V156.925Z" fill="white" stroke="white" stroke-width="0.5"/>
<path d="M115.531 178.512L116.532 178.825H109.931H109.868C109.837 178.794 109.149 178.23 107.772 174.069C107.021 171.723 106.239 170.409 105.457 169.251C105.269 169.001 105.05 168.782 104.8 168.594C104.8 168.594 104.769 168.594 104.769 168.563C104.268 168.25 103.611 168.125 103.017 168.25C101.984 168.438 100.952 168.813 100.013 169.314L99.8568 169.032C101.327 168.25 102.954 167.781 104.612 167.75V167.718H104.988C106.583 167.718 108.085 166.999 109.086 165.716C109.681 164.997 110.056 164.121 110.181 163.182C110.588 159.991 108.085 157.269 104.988 157.269H98.6366V178.825H95.2891V156.925H107.303C110.4 156.925 113.028 159.49 112.966 162.588C112.934 165.622 110.431 168.063 107.428 168.063H104.956C104.831 168.063 104.675 168.063 104.55 168.063C104.831 168.219 105.113 168.407 105.426 168.626V168.657C106.489 169.439 107.553 170.628 108.617 172.13C112.371 177.48 115.5 178.512 115.531 178.512Z" fill="white" stroke="white" stroke-width="0.5"/>
<path d="M77.5731 160.304C79.2 162.275 80.2011 164.965 80.2011 167.875C80.2011 173.913 76.0088 178.825 70.8467 178.825C68.7192 178.825 66.7482 178.011 65.1839 176.604C64.7459 176.291 64.4018 175.915 64.0889 175.477C62.4621 173.506 61.4922 170.816 61.4922 167.875C61.4922 161.868 65.6845 156.925 70.8467 156.925C72.9428 156.925 74.9138 157.77 76.4781 159.177C76.9161 159.49 77.2916 159.866 77.5731 160.304ZM76.4781 171.16C78.762 167.249 78.981 162.963 77.3541 160.523C77.01 160.116 76.6658 159.772 76.2904 159.428C76.1653 159.334 76.0088 159.24 75.8837 159.146C75.1954 158.739 74.4133 158.552 73.5998 158.552C70.7215 158.552 67.3426 160.867 65.1839 164.621C62.9313 168.532 62.6811 172.818 64.3392 175.258C64.6521 175.665 64.9962 176.009 65.3716 176.353C65.5281 176.447 65.6532 176.541 65.7784 176.635C67.2801 177.48 69.2198 177.417 71.2221 176.385C73.287 175.352 75.1328 173.506 76.4781 171.16Z" fill="white" stroke="white" stroke-width="0.5"/>
<path d="M46.7137 171.285C46.4634 172.912 45.9629 174.539 45.0556 175.915C43.8041 177.761 41.5515 178.825 39.3615 178.825H35.4195L30.6641 156.925H34.1681L38.861 178.512H39.3615C41.5828 178.512 43.9918 177.323 45.0556 175.321C45.3059 174.914 45.431 174.445 45.4936 173.976C45.7126 172.63 45.6187 171.222 45.4936 169.846C45.3371 168.501 45.1181 167.155 44.8366 165.81C44.2421 163.151 43.3974 160.523 42.2398 158.051C42.0834 157.676 41.8957 157.3 41.708 156.956C42.8968 156.956 44.0544 156.956 45.212 156.956C46.526 160.773 47.1204 164.871 46.9327 168.939C46.9014 169.689 46.8389 170.503 46.7137 171.285Z" fill="white" stroke="white" stroke-width="0.5"/>
<path d="M201.529 156.717L208.636 167.189C209.121 167.492 209.717 167.631 210.316 167.574L210.318 167.574C211.01 167.516 211.646 167.17 212.081 166.62L212.081 166.619L212.161 166.52V166.497L212.197 166.444C213.184 164.986 213.696 162.683 213.958 160.707C214.088 159.724 214.155 158.832 214.19 158.182C214.207 157.857 214.216 157.593 214.221 157.408C214.223 157.316 214.224 157.243 214.225 157.193C214.225 157.168 214.226 157.149 214.226 157.135V156.717H220.289L212.793 166.894C212.751 166.971 212.704 167.019 212.653 167.071L210.528 169.945L216.736 179.033H212.854L205.714 168.559C205.194 168.222 204.6 168.059 203.981 168.144L203.976 168.144L203.97 168.145C203.283 168.202 202.65 168.544 202.216 169.088L202.129 169.234L202.126 169.238L202.123 169.243C201.12 170.717 200.6 173.029 200.334 175.009C200.202 175.993 200.134 176.886 200.099 177.537C200.082 177.862 200.073 178.126 200.068 178.311C200.065 178.403 200.064 178.475 200.063 178.526C200.063 178.551 200.063 178.57 200.062 178.584V178.971H194.827L194.836 178.983C194.837 178.984 194.838 178.984 194.838 178.985L194.937 179.063L194.862 179.041V179.063C194.862 179.063 194.862 179.028 194.835 178.988L194.833 178.986C194.827 178.978 194.818 178.973 194.808 178.972C194.799 178.971 194.79 178.973 194.783 178.978L194.724 179.063H194.669L194.724 178.999L194.703 178.971H194.031L201.502 168.816L201.511 168.803L201.522 168.792C201.541 168.773 201.557 168.752 201.574 168.728C201.581 168.718 201.594 168.7 201.603 168.688C201.609 168.679 201.618 168.67 201.627 168.659L203.791 165.742L197.647 156.717H201.529ZM204.302 165.753L204.214 165.872L202.374 168.349C202.82 167.997 203.36 167.779 203.936 167.731C204.631 167.639 205.292 167.812 205.863 168.161L205.977 168.234L206.01 168.256L206.033 168.29L213.073 178.617H215.949L210.101 170.057L210.018 169.935L211.917 167.367C211.471 167.72 210.93 167.94 210.353 167.988L210.352 167.988C209.652 168.054 208.948 167.888 208.376 167.518L208.341 167.495L208.318 167.46L201.309 157.133H198.433L204.302 165.753ZM194.853 178.555H199.648C199.651 178.261 199.68 176.761 199.922 174.953C200.153 173.237 200.579 171.213 201.376 169.687L194.853 178.555ZM214.641 157.133C214.64 157.329 214.619 158.88 214.37 160.761C214.144 162.464 213.728 164.467 212.952 165.978L219.466 157.133H214.641Z" fill="white"/>
<path d="M201.587 156.613L208.712 167.112C209.173 167.394 209.737 167.524 210.305 167.471H210.308L210.312 167.47C210.975 167.415 211.584 167.083 212.001 166.555L212.005 166.551L212.006 166.55L212.059 166.483V166.466L212.077 166.439L212.113 166.386C213.085 164.95 213.596 162.668 213.857 160.693C213.987 159.714 214.054 158.824 214.088 158.176C214.105 157.852 214.115 157.589 214.119 157.405C214.122 157.314 214.123 157.242 214.123 157.191C214.124 157.166 214.124 157.148 214.124 157.135V156.613H220.497L212.881 166.952C212.835 167.034 212.784 167.087 212.735 167.137L210.657 169.947L216.824 178.974L216.935 179.137H212.801L212.77 179.091L205.642 168.635C205.145 168.318 204.581 168.167 203.998 168.247L203.997 168.246L203.993 168.247L203.989 168.248H203.981L203.981 168.248C203.325 168.303 202.721 168.628 202.304 169.147L202.22 169.287L202.22 169.287L202.218 169.291L202.216 169.294L202.212 169.301L202.211 169.302C201.223 170.754 200.705 173.044 200.44 175.022C200.308 176.003 200.24 176.894 200.206 177.542C200.188 177.866 200.179 178.13 200.174 178.314C200.172 178.405 200.17 178.477 200.169 178.527C200.169 178.553 200.169 178.572 200.169 178.585V179.074H195.035H194.871H194.789H194.702H194.549H193.828L201.42 168.754L201.429 168.742L201.435 168.735L201.451 168.718C201.464 168.705 201.476 168.691 201.492 168.668C201.497 168.66 201.512 168.639 201.522 168.626C201.529 168.616 201.54 168.604 201.546 168.597L203.666 165.739L197.453 156.613H201.587ZM203.921 165.745L203.877 165.804L201.713 168.721L201.711 168.723L201.709 168.726C201.695 168.743 201.692 168.745 201.689 168.749C201.68 168.762 201.67 168.775 201.661 168.789C201.643 168.814 201.623 168.84 201.598 168.865L201.597 168.866L201.592 168.871L201.588 168.876L201.588 168.877L194.239 178.867H199.961V178.583C199.961 178.569 199.961 178.548 199.962 178.524C199.962 178.473 199.964 178.4 199.966 178.308C199.971 178.122 199.98 177.857 199.998 177.531C200.033 176.878 200.101 175.983 200.234 174.995C200.499 173.013 201.021 170.68 202.039 169.185L202.041 169.181L202.042 169.18L202.129 169.034L202.133 169.028L202.137 169.023C202.589 168.457 203.247 168.101 203.964 168.041L203.969 168.041L203.969 168.04C204.616 167.952 205.235 168.123 205.772 168.472L205.79 168.483L205.802 168.501L212.911 178.929H216.542L210.444 170.003L210.403 169.942L212.571 167.009L212.576 167.003L212.581 166.997C212.632 166.947 212.669 166.907 212.704 166.844L212.707 166.838L212.711 166.833L220.085 156.821H214.332V157.136C214.332 157.15 214.332 157.17 214.331 157.195C214.33 157.245 214.33 157.318 214.327 157.411C214.322 157.597 214.313 157.862 214.296 158.188C214.261 158.84 214.194 159.735 214.063 160.721C213.801 162.698 213.287 165.023 212.285 166.503L212.267 166.529V166.556L212.165 166.684L212.164 166.684L212.077 166.789C211.631 167.298 211.01 167.618 210.337 167.676L210.338 167.677L210.335 167.677L210.328 167.678C209.707 167.737 209.088 167.593 208.583 167.277L208.565 167.266L208.553 167.248L201.476 156.821H197.846L203.921 165.745ZM201.367 157.029L208.406 167.401L208.418 167.419L208.435 167.431C208.986 167.787 209.666 167.948 210.345 167.884L210.394 167.88C210.932 167.826 211.436 167.616 211.855 167.285L212.003 167.429L210.148 169.937L210.189 169.999L216.037 178.559L216.148 178.721H213.021L212.989 178.676L205.949 168.348L205.938 168.331L205.923 168.321L205.809 168.249C205.256 167.911 204.619 167.745 203.952 167.834L203.947 167.834C203.392 167.88 202.871 168.091 202.441 168.43L202.293 168.287L204.133 165.809L204.176 165.75L198.239 157.029H201.367ZM201.471 169.736C200.682 171.245 200.258 173.254 200.028 174.967C199.786 176.769 199.757 178.265 199.754 178.556L199.753 178.659H194.65L201.295 169.626L201.471 169.736ZM204.432 165.755L204.3 165.933L202.8 167.953C203.146 167.774 203.527 167.661 203.924 167.627C204.601 167.538 205.245 167.691 205.808 168.007L205.92 168.073L205.921 168.074L206.035 168.146L206.036 168.147L206.07 168.17L206.087 168.181L206.099 168.198L206.121 168.232L213.131 178.513H215.755L210.018 170.116L209.893 169.933L211.496 167.763C211.148 167.945 210.764 168.058 210.364 168.092L210.316 168.096L210.314 168.095C209.608 168.151 208.901 167.98 208.322 167.605L208.322 167.605L208.287 167.582L208.269 167.57L208.234 167.518L201.256 157.237H198.632L204.432 165.755ZM195.061 178.451H199.548C199.557 177.996 199.599 176.596 199.822 174.939C200.009 173.54 200.328 171.93 200.874 170.548L195.061 178.451ZM219.674 157.029L213.038 166.04L212.862 165.93C213.629 164.436 214.044 162.447 214.269 160.747C214.517 158.872 214.538 157.326 214.539 157.132L214.54 157.029H219.674ZM214.745 157.237C214.738 157.655 214.699 159.082 214.475 160.775C214.291 162.167 213.978 163.767 213.443 165.139L219.263 157.237H214.745Z" fill="white"/>
<path d="M181.614 156.717V161.211L181.059 160.864C181.054 160.862 181.05 160.86 181.046 160.858C181.033 160.852 181.018 160.843 181.002 160.834C180.968 160.816 180.921 160.789 180.863 160.756C180.747 160.689 180.578 160.593 180.36 160.475C179.926 160.238 179.298 159.912 178.507 159.555L178.21 159.427C175.194 158.145 171.958 157.504 168.662 157.478V166.885H175.451V167.645H168.662V178.303C172.066 178.276 175.405 177.594 178.505 176.227C179.297 175.869 179.926 175.544 180.36 175.307C180.578 175.189 180.747 175.092 180.863 175.026C180.921 174.993 180.968 174.966 181.002 174.947C181.018 174.938 181.033 174.93 181.046 174.923C181.05 174.921 181.055 174.919 181.06 174.916L181.296 174.769L181.614 174.571V179.033H164.898V156.717H181.614ZM181.069 175.387C180.952 175.454 180.78 175.552 180.559 175.672C180.118 175.912 179.479 176.243 178.676 176.606L178.674 176.607C176.169 177.712 173.511 178.377 170.791 178.617H181.198V175.313C181.168 175.33 181.126 175.355 181.069 175.387ZM165.314 178.617H168.246V157.133H165.314V178.617ZM170.409 157.133C173.262 157.343 176.052 158.018 178.674 159.175L178.676 159.176C179.479 159.538 180.118 159.869 180.559 160.11C180.78 160.23 180.952 160.327 181.069 160.395C181.126 160.427 181.168 160.451 181.198 160.468V157.133H170.409Z" fill="white"/>
<path d="M181.718 156.613V161.398L181.011 160.956C181.01 160.956 181.009 160.955 181.007 160.955C181.005 160.954 181.003 160.953 181 160.951C180.985 160.944 180.968 160.934 180.951 160.925C180.918 160.906 180.87 160.879 180.812 160.846C180.695 160.779 180.527 160.684 180.311 160.566C179.879 160.331 179.253 160.006 178.465 159.65L178.169 159.523L177.887 159.404C174.997 158.22 171.91 157.62 168.766 157.583V166.781H175.555V167.749H168.766V178.197C172.12 178.157 175.409 177.479 178.463 176.131C179.252 175.776 179.879 175.451 180.311 175.216C180.527 175.098 180.695 175.002 180.812 174.935C180.87 174.903 180.918 174.875 180.951 174.856C180.968 174.847 180.985 174.838 181 174.83L181 174.83C181 174.83 181.003 174.829 181.004 174.828C181.006 174.827 181.008 174.826 181.011 174.825L181.241 174.681L181.718 174.383V179.137H164.795V156.613H181.718ZM165.002 178.929H181.51V174.758L181.352 174.857L181.115 175.004L181.11 175.008L181.104 175.011C181.104 175.011 181.103 175.01 181.102 175.011L181.1 175.012L181.098 175.013C181.097 175.014 181.095 175.015 181.093 175.016C181.082 175.022 181.068 175.029 181.052 175.038C181.02 175.056 180.973 175.083 180.915 175.116C180.798 175.182 180.628 175.279 180.41 175.398C179.974 175.636 179.343 175.963 178.548 176.321L178.547 176.321C175.434 177.695 172.08 178.38 168.663 178.407L168.558 178.407V167.541H175.347V166.989H168.558V157.373L168.663 157.374C171.972 157.4 175.221 158.043 178.25 159.331L178.251 159.331L178.548 159.46L178.55 159.461C179.344 159.819 179.974 160.146 180.41 160.383C180.628 160.502 180.798 160.599 180.915 160.666C180.973 160.699 181.02 160.725 181.052 160.743C181.067 160.752 181.081 160.759 181.091 160.764L181.092 160.765L181.103 160.77L181.109 160.773L181.114 160.776L181.51 161.023V156.821H165.002V178.929ZM168.35 157.029V178.721H165.21V157.029H168.35ZM181.302 178.721H170.791L170.782 178.514C173.49 178.274 176.136 177.612 178.63 176.512L178.634 176.511C179.434 176.15 180.07 175.82 180.51 175.581C180.73 175.461 180.9 175.364 181.018 175.297C181.073 175.265 181.117 175.239 181.148 175.222L181.302 175.136V178.721ZM180.609 175.763C180.166 176.004 179.527 176.335 178.722 176.698L178.722 176.699L178.721 176.699L178.716 176.701C176.724 177.581 174.635 178.181 172.496 178.513H181.095V175.492C180.978 175.558 180.815 175.651 180.609 175.763ZM165.418 178.513H168.142V157.237H165.418V178.513ZM181.302 157.029V160.645L181.148 160.559C181.117 160.541 181.074 160.517 181.018 160.485C180.9 160.418 180.73 160.321 180.51 160.201C180.07 159.961 179.434 159.631 178.634 159.27L178.63 159.269C176.019 158.118 173.242 157.446 170.401 157.236L170.409 157.029H181.302ZM172.289 157.237C174.323 157.536 176.314 158.076 178.221 158.868L178.716 159.08L178.721 159.082L178.722 159.083C179.527 159.446 180.166 159.777 180.609 160.018C180.815 160.13 180.978 160.223 181.095 160.289V157.237H172.289Z" fill="white"/>
<path d="M140.931 158.865C140.931 158.454 141.076 158.077 141.332 157.818L141.337 157.813C141.635 157.545 141.987 157.373 142.391 157.373C145.138 157.373 147.129 158.211 148.44 159.05C149.096 159.47 149.582 159.891 149.908 160.208C150.071 160.366 150.194 160.499 150.278 160.593C150.32 160.64 150.352 160.678 150.376 160.704C150.387 160.718 150.397 160.729 150.405 160.737C150.408 160.741 150.413 160.746 150.417 160.75L150.423 160.755C150.423 160.755 150.424 160.756 150.426 160.757C150.429 160.76 150.434 160.763 150.439 160.766L150.509 160.809L150.508 160.811L150.849 161.023V156.821H127.427V161.038L127.728 160.822L127.727 160.821L127.809 160.762C127.814 160.759 127.818 160.757 127.821 160.755C127.822 160.753 127.824 160.752 127.826 160.75C127.833 160.744 127.837 160.739 127.839 160.737C127.847 160.729 127.854 160.72 127.868 160.704C127.891 160.678 127.924 160.64 127.966 160.593C128.05 160.499 128.173 160.366 128.336 160.208C128.661 159.891 129.148 159.47 129.804 159.05C131.115 158.211 133.106 157.373 135.852 157.373C136.206 157.373 136.52 157.505 136.792 157.718L136.907 157.813L136.911 157.818C137.171 158.081 137.344 158.459 137.344 158.865V178.929H140.931V158.865ZM140.515 158.865C140.515 158.355 140.697 157.865 141.044 157.518L141.048 157.514L141.056 157.507C141.168 157.406 141.289 157.315 141.419 157.237H136.826C136.876 157.267 136.926 157.3 136.974 157.334L137.05 157.392L137.053 157.394L137.185 157.504L137.187 157.507L137.199 157.518C137.535 157.854 137.76 158.339 137.76 158.865V178.513H140.515V158.865ZM150.641 157.029V160.69L150.459 160.484C150.451 160.475 150.442 160.465 150.433 160.455C150.346 160.358 150.22 160.221 150.053 160.058C149.719 159.733 149.222 159.304 148.552 158.875C147.441 158.164 145.856 157.458 143.757 157.236L143.768 157.029H150.641ZM134.476 157.029L134.487 157.236C132.388 157.457 130.803 158.164 129.692 158.875C129.022 159.304 128.525 159.733 128.191 160.058C128.027 160.218 127.902 160.353 127.816 160.449L127.634 160.652V157.029H134.476ZM145.072 157.237C146.58 157.562 147.771 158.128 148.664 158.7C149.348 159.137 149.856 159.577 150.198 159.91C150.288 159.997 150.366 160.077 150.433 160.148V157.237H145.072ZM127.842 160.115C127.902 160.053 127.97 159.984 128.046 159.91C128.388 159.577 128.897 159.137 129.58 158.7C130.473 158.128 131.664 157.562 133.172 157.237H127.842V160.115ZM140.723 178.721H137.552V158.865C137.552 158.427 137.376 158.019 137.107 157.722L137.052 157.665L137.051 157.663L136.922 157.556L136.853 157.503C136.688 157.385 136.507 157.291 136.311 157.232L136.341 157.029H141.903L141.933 157.232C141.656 157.315 141.41 157.468 141.195 157.661L141.191 157.665C140.888 157.968 140.723 158.403 140.723 158.865V178.721ZM141.139 179.137H137.136V158.865C137.136 158.519 136.989 158.194 136.766 157.967C136.495 157.724 136.192 157.581 135.852 157.581C133.151 157.581 131.199 158.404 129.916 159.225C129.274 159.636 128.798 160.047 128.481 160.356C128.322 160.511 128.202 160.64 128.121 160.732C128.08 160.777 128.049 160.813 128.025 160.841C128.019 160.847 128.012 160.855 128.005 160.863L128.013 160.874L127.712 161.089L127.219 161.442V156.613H151.057V161.398L150.329 160.944L150.26 160.9L150.263 160.889C150.259 160.885 150.255 160.882 150.252 160.878C150.242 160.868 150.23 160.853 150.219 160.841C150.195 160.813 150.164 160.777 150.123 160.732C150.041 160.64 149.921 160.511 149.763 160.356C149.445 160.047 148.97 159.636 148.328 159.225C147.085 158.43 145.214 157.632 142.642 157.583L142.391 157.581C142.051 157.581 141.748 157.724 141.477 157.967C141.266 158.183 141.139 158.504 141.139 158.865V179.137Z" fill="white"/>
<path d="M107.3 156.717C110.508 156.717 113.236 159.373 113.17 162.592C113.137 165.741 110.541 168.27 107.425 168.271H105.273C105.361 168.33 105.45 168.392 105.542 168.456L105.631 168.518V168.554C106.623 169.303 107.606 170.388 108.583 171.73L108.784 172.01L108.784 172.01C110.649 174.668 112.354 176.247 113.591 177.16C114.209 177.617 114.71 177.907 115.056 178.082C115.229 178.169 115.363 178.229 115.454 178.265C115.499 178.283 115.532 178.295 115.554 178.303C115.556 178.304 115.557 178.304 115.558 178.304H115.56L115.59 178.314L116.591 178.627L116.529 179.033H109.779L109.718 178.972C109.712 178.967 109.69 178.945 109.67 178.923C109.64 178.891 109.6 178.844 109.551 178.778C109.453 178.645 109.315 178.432 109.138 178.092C108.782 177.414 108.262 176.221 107.572 174.135L107.571 174.133C106.829 171.812 106.057 170.516 105.284 169.372C105.115 169.148 104.919 168.951 104.697 168.78C104.694 168.779 104.691 168.778 104.688 168.777C104.664 168.765 104.635 168.744 104.61 168.713C104.16 168.448 103.579 168.344 103.056 168.454L103.051 168.455C102.042 168.639 101.03 169.006 100.108 169.498L99.9275 169.594L99.6722 169.134L99.569 168.949L99.7562 168.849C101.192 168.085 102.778 167.614 104.401 167.549V167.511H104.985C106.517 167.511 107.958 166.82 108.919 165.589L108.923 165.584C109.491 164.896 109.851 164.057 109.972 163.156L109.988 163.013C110.287 160.011 107.913 157.477 104.985 157.477H98.8415V179.033H95.0781V156.717H107.3ZM105.502 168.978C105.542 169.027 105.582 169.076 105.62 169.127L105.623 169.131L105.626 169.135C106.417 170.305 107.209 171.637 107.967 174.006C108.653 176.079 109.165 177.248 109.506 177.9C109.676 178.225 109.803 178.419 109.885 178.53C109.913 178.568 109.936 178.596 109.954 178.617H115.221C115.128 178.577 115.01 178.524 114.869 178.453C114.502 178.267 113.98 177.965 113.343 177.494C112.069 176.553 110.333 174.942 108.444 172.25C107.455 170.854 106.474 169.741 105.502 168.978ZM95.4938 178.617H98.4258V157.133H95.4938V178.617ZM103.777 168.012C103.903 168.026 104.027 168.049 104.149 168.08L103.989 167.991C103.918 167.997 103.848 168.004 103.777 168.012ZM105.867 157.133C108.663 157.593 110.768 160.2 110.384 163.208V163.21C110.254 164.184 109.865 165.094 109.247 165.844C108.393 166.938 107.187 167.639 105.866 167.855H107.425C110.316 167.855 112.725 165.505 112.755 162.586V162.584C112.815 159.608 110.286 157.133 107.3 157.133H105.867Z" fill="white"/>
<path d="M107.302 156.613C110.566 156.613 113.343 159.314 113.277 162.594C113.242 165.8 110.599 168.374 107.427 168.374H105.61L105.693 168.432L105.737 168.464V168.503C106.726 169.259 107.703 170.341 108.669 171.669L108.669 171.67L108.865 171.942L108.866 171.943L108.872 171.951C110.73 174.6 112.428 176.171 113.655 177.077C114.268 177.529 114.765 177.817 115.106 177.989C115.276 178.075 115.408 178.133 115.495 178.169C115.533 178.184 115.562 178.194 115.583 178.202L115.594 178.205L115.624 178.215L116.624 178.528L116.71 178.554L116.696 178.642L116.621 179.137H109.738L109.647 179.046C109.637 179.036 109.616 179.015 109.596 178.994C109.563 178.958 109.521 178.909 109.47 178.839C109.368 178.701 109.227 178.484 109.048 178.141C108.689 177.455 108.167 176.257 107.475 174.167L107.473 174.162L107.473 174.16C106.735 171.856 105.971 170.571 105.204 169.435L105.141 169.355C104.995 169.174 104.83 169.012 104.645 168.87C104.614 168.854 104.579 168.83 104.547 168.795C104.121 168.548 103.572 168.452 103.08 168.556L103.08 168.556L103.072 168.558C102.137 168.728 101.198 169.058 100.332 169.5L100.159 169.59L99.8885 169.733L99.5836 169.184L99.4805 168.999L99.4289 168.906L99.5227 168.857L99.7098 168.757C101.128 168.003 102.694 167.531 104.3 167.45V167.407H104.987L105.128 167.405C106.575 167.364 107.927 166.693 108.839 165.524L108.842 165.521L108.845 165.518C109.4 164.845 109.753 164.024 109.871 163.142L109.887 163.003L109.899 162.865C110.104 160.031 107.882 157.657 105.121 157.582L104.987 157.581H98.9478V179.137H94.9766V156.613H107.302ZM95.1844 178.929H98.74V157.373H104.987C107.976 157.373 110.399 159.959 110.094 163.023L110.094 163.024L110.077 163.168V163.17C109.955 164.088 109.587 164.943 109.008 165.646L109.008 165.646L109.003 165.653C108.022 166.91 106.551 167.615 104.987 167.615H104.508V167.649L104.408 167.653C102.801 167.717 101.231 168.184 99.8073 168.941L99.7139 168.99L99.7655 169.083L99.9713 169.454L100.062 169.406L100.237 169.315C101.119 168.865 102.077 168.527 103.034 168.353L103.037 168.353L103.037 168.352C103.552 168.244 104.118 168.333 104.575 168.573L104.665 168.623L104.682 168.633L104.694 168.648C104.708 168.665 104.723 168.676 104.735 168.683L104.742 168.685L104.752 168.69L104.762 168.698C104.964 168.852 105.144 169.027 105.303 169.224L105.37 169.31L105.373 169.314C106.101 170.393 106.829 171.607 107.532 173.676L107.673 174.101L107.674 174.107C108.363 176.187 108.881 177.373 109.232 178.044C109.408 178.38 109.543 178.588 109.637 178.716C109.684 178.78 109.722 178.823 109.749 178.853C109.767 178.873 109.787 178.892 109.791 178.896L109.824 178.929H116.442L116.477 178.699L115.562 178.413H115.561L115.545 178.408H115.543L115.527 178.402C115.527 178.402 115.524 178.402 115.523 178.401C115.499 178.393 115.464 178.38 115.417 178.361C115.324 178.323 115.187 178.263 115.012 178.174C114.66 177.997 114.154 177.704 113.531 177.244C112.285 176.324 110.572 174.736 108.701 172.07L108.501 171.792L108.319 171.543C107.406 170.32 106.49 169.331 105.571 168.637L105.529 168.605V168.572L105.484 168.541C105.393 168.477 105.304 168.416 105.217 168.357L104.936 168.167H107.427L107.57 168.165C110.566 168.089 113.036 165.634 113.069 162.591V162.59C113.133 159.432 110.455 156.821 107.302 156.821H95.1844V178.929ZM98.5321 157.029V178.721H95.3923V157.029H98.5321ZM105.568 168.897C106.49 169.62 107.416 170.65 108.345 171.93L108.531 172.189L108.531 172.19C110.414 174.873 112.143 176.477 113.408 177.411C114.04 177.878 114.557 178.177 114.918 178.36C115.057 178.43 115.173 178.483 115.265 178.522L115.224 178.721H109.909L109.878 178.685C109.858 178.662 109.834 178.632 109.804 178.592C109.718 178.475 109.588 178.277 109.416 177.948C109.072 177.29 108.558 176.115 107.871 174.039L107.87 174.038C107.116 171.681 106.329 170.358 105.543 169.195L105.54 169.191L105.539 169.189L105.424 169.045L105.568 168.897ZM106.047 169.581C106.731 170.648 107.413 171.926 108.068 173.974L108.317 174.708C108.878 176.326 109.305 177.287 109.6 177.851C109.769 178.173 109.893 178.362 109.971 178.469C109.984 178.486 109.996 178.5 110.007 178.513H114.762C114.394 178.323 113.891 178.026 113.284 177.578C112 176.63 110.256 175.01 108.361 172.309C107.582 171.21 106.81 170.291 106.047 169.581ZM95.6001 178.513H98.3242V157.237H95.6001V178.513ZM104.042 167.9L104.202 167.989L104.126 168.18C104.009 168.15 103.889 168.128 103.768 168.115V167.908C103.839 167.901 103.911 167.893 103.982 167.887L104.014 167.884L104.042 167.9ZM107.302 157.029C110.344 157.029 112.922 159.549 112.861 162.586V162.587C112.83 165.564 110.374 167.959 107.427 167.959H105.868L105.851 167.752C107.148 167.54 108.329 166.853 109.167 165.78L109.169 165.778C109.774 165.044 110.156 164.151 110.284 163.196C110.66 160.245 108.596 157.687 105.852 157.236L105.869 157.029H107.302ZM106.723 157.237C109.14 158.037 110.838 160.46 110.491 163.214V163.216L110.49 163.223C110.358 164.215 109.96 165.143 109.331 165.908C108.644 166.787 107.735 167.416 106.721 167.751H107.427L107.56 167.749C110.335 167.679 112.624 165.402 112.653 162.584V162.582C112.712 159.667 110.233 157.237 107.302 157.237H106.723Z" fill="white"/>
<path d="M79.9831 167.875C79.9831 165.333 79.2053 162.963 77.9138 161.111C79.1449 163.7 78.752 167.662 76.6476 171.265C75.2864 173.639 73.4136 175.515 71.3069 176.569L71.3074 176.57C69.367 177.57 67.4544 177.692 65.916 176.946C67.334 178.014 69.0279 178.617 70.8364 178.617C75.8542 178.617 79.9831 173.83 79.9831 167.875ZM73.5898 158.76C70.8133 158.76 67.4919 161.007 65.3541 164.725C63.1229 168.599 62.9065 172.79 64.4987 175.138C64.7961 175.524 65.1242 175.853 65.4881 176.188C65.6393 176.28 65.7627 176.372 65.8782 176.458C67.3023 177.255 69.1626 177.208 71.117 176.2L71.119 176.199C73.1407 175.188 74.959 173.375 76.2879 171.057L76.2887 171.055C78.5475 167.187 78.7362 162.999 77.1778 160.648C76.8455 160.257 76.5123 159.923 76.147 159.588C76.092 159.547 76.0298 159.505 75.9619 159.46C75.8966 159.417 75.8258 159.369 75.7609 159.321C75.1104 158.939 74.3683 158.76 73.5898 158.76ZM61.6902 167.875C61.6902 170.501 62.4752 172.918 63.8098 174.786C62.489 172.199 62.8883 168.173 64.9936 164.518L65.2015 164.167C67.3875 160.58 70.7027 158.344 73.5898 158.344C74.3308 158.344 75.0519 158.494 75.7065 158.819C74.2914 157.753 72.6078 157.133 70.8364 157.133C65.819 157.133 61.6902 161.951 61.6902 167.875ZM80.3988 167.875C80.3988 173.996 76.1429 179.033 70.8364 179.033C68.6571 179.033 66.6398 178.2 65.0411 176.764C64.5868 176.437 64.2311 176.048 63.9121 175.602C62.2564 173.592 61.2745 170.857 61.2744 167.875C61.2744 161.786 65.5296 156.717 70.8364 156.717C72.9864 156.717 75.0027 157.582 76.5993 159.016C77.0471 159.338 77.4352 159.726 77.7299 160.18C79.3844 162.189 80.3988 164.923 80.3988 167.875Z" fill="white"/>
<path d="M80.2972 167.875C80.2972 164.946 79.2906 162.236 77.6519 160.246L77.6482 160.241L77.645 160.237C77.3584 159.794 76.98 159.416 76.5411 159.101L76.5363 159.097L76.5322 159.093C74.9524 157.675 72.9601 156.821 70.8388 156.821C65.6044 156.821 61.3807 161.827 61.3807 167.875C61.3808 170.742 62.2955 173.376 63.843 175.347L63.9948 175.535L63.9989 175.541C64.2739 175.926 64.5748 176.265 64.9424 176.557L65.1044 176.68L65.1088 176.683L65.1129 176.687C66.6939 178.107 68.6868 178.929 70.8388 178.929C76.073 178.929 80.2972 173.955 80.2972 167.875ZM79.8815 167.875C79.8815 165.739 79.3277 163.727 78.3806 162.046C79.1408 164.63 78.607 168.12 76.7397 171.317C75.3978 173.657 73.5591 175.521 71.4835 176.596L71.3572 176.662C69.7264 177.503 68.1051 177.734 66.6994 177.349C67.9396 178.099 69.3499 178.513 70.8388 178.513C75.7845 178.513 79.8815 173.789 79.8815 167.875ZM73.5921 158.656C74.337 158.656 75.0521 158.816 75.6894 159.16L75.8161 159.231L75.8205 159.234L75.825 159.238C75.8875 159.284 75.9563 159.33 76.0219 159.374C76.0895 159.419 76.1537 159.462 76.2111 159.504L76.2155 159.507L76.2196 159.511C76.5871 159.848 76.9235 160.185 77.2593 160.581L77.2634 160.586L77.2666 160.591C78.8548 162.986 78.6505 167.218 76.3832 171.103L76.382 171.106L76.3804 171.108C75.0448 173.438 73.215 175.265 71.1745 176.288L71.1729 176.289L71.1701 176.291L70.9817 176.385C69.0721 177.314 67.2464 177.342 65.8298 176.549L65.8238 176.546L65.8181 176.541C65.7026 176.455 65.5829 176.366 65.4365 176.276L65.4275 176.271L65.4202 176.264C65.0543 175.928 64.7212 175.594 64.4187 175.201L64.417 175.199L64.415 175.196C63.602 173.998 63.256 172.337 63.3911 170.496C63.5264 168.654 64.1436 166.622 65.2663 164.673C67.4146 160.937 70.7648 158.656 73.5921 158.656ZM73.5921 158.864C70.8666 158.864 67.5739 161.078 65.4466 164.777C64.3381 166.702 63.7313 168.703 63.5986 170.511C63.4659 172.32 63.8076 173.929 64.5859 175.078C64.8758 175.453 65.1964 175.776 65.5546 176.105C65.7036 176.197 65.8262 176.287 65.9378 176.371C67.3219 177.142 69.1396 177.102 71.0674 176.11L71.0714 176.107L71.0751 176.106C73.0752 175.106 74.8795 173.309 76.2001 171.005L76.2013 171.003C78.4472 167.157 78.6213 163.018 77.0977 160.712C76.7712 160.327 76.4435 159.999 76.0832 159.668C76.0316 159.63 75.9728 159.591 75.9066 159.546C75.8444 159.505 75.7753 159.458 75.7105 159.411L75.5912 159.343C74.9877 159.018 74.3071 158.864 73.5921 158.864ZM70.8388 157.029C72.6349 157.029 74.3401 157.658 75.7714 158.737L75.6626 158.912C75.0241 158.595 74.3191 158.448 73.5921 158.448C70.7547 158.448 67.4681 160.652 65.2927 164.22L65.2923 164.22L65.0857 164.569C62.9908 168.206 62.6056 172.194 63.9047 174.739L63.7277 174.847C62.3799 172.96 61.5886 170.521 61.5886 167.875C61.5886 161.909 65.7491 157.029 70.8388 157.029ZM61.7965 167.875C61.7965 170.059 62.3439 172.096 63.2994 173.787C62.5064 171.197 63.0538 167.681 64.9058 164.466L64.9067 164.465L65.1145 164.114L65.1149 164.112C67.3117 160.509 70.6555 158.24 73.5921 158.24C74.0447 158.24 74.4908 158.295 74.9201 158.411C73.6866 157.661 72.2922 157.237 70.8388 157.237C65.8937 157.237 61.7965 161.992 61.7965 167.875ZM80.0894 167.875C80.0894 173.872 75.9287 178.721 70.8388 178.721C69.0065 178.721 67.2909 178.11 65.8558 177.029L65.9638 176.852C67.4322 177.565 69.2595 177.471 71.1343 176.541L71.1339 176.541L71.2626 176.476C73.3477 175.433 75.2069 173.573 76.5598 171.213L76.5602 171.213C78.6537 167.628 79.034 163.704 77.8224 161.156L78.0014 161.052C79.3052 162.922 80.0894 165.312 80.0894 167.875ZM80.5051 167.875C80.5051 174.037 76.2176 179.137 70.8388 179.137C68.635 179.137 66.5964 178.295 64.9809 176.847C64.5182 176.513 64.1564 176.118 63.8341 175.668L63.6794 175.475C62.1012 173.465 61.1729 170.785 61.1729 167.875C61.1729 161.745 65.4596 156.613 70.8388 156.613C73.0152 156.613 75.0536 157.488 76.6662 158.935C77.1187 159.26 77.5127 159.653 77.8139 160.116C79.4834 162.143 80.5051 164.9 80.5051 167.875Z" fill="white"/>
<path d="M34.3357 156.717L39.0284 178.304H39.3617C41.5214 178.304 43.851 177.146 44.872 175.224L44.8753 175.218L44.8785 175.212C45.108 174.84 45.2273 174.402 45.2877 173.949L45.2881 173.945L45.2886 173.942C45.5029 172.626 45.4117 171.242 45.2865 169.865C45.131 168.529 44.9134 167.192 44.6337 165.855C44.042 163.208 43.2018 160.595 42.0517 158.139L42.0497 158.135L42.048 158.131C41.8952 157.764 41.7109 157.396 41.5256 157.056L41.3579 156.749H45.3604L45.4087 156.889C46.7312 160.73 47.3295 164.855 47.1406 168.949C47.1091 169.703 47.0456 170.524 46.919 171.317C46.6658 172.962 46.1581 174.621 45.2293 176.03L45.2277 176.032C43.9335 177.941 41.613 179.033 39.3617 179.033H35.252L35.2167 178.869L30.4062 156.717H34.3357ZM35.5869 178.617H38.6711L38.6577 178.556L34.0008 157.133H30.9222L35.5869 178.617ZM42.0529 157.164C42.1857 157.422 42.3147 157.692 42.428 157.963L42.6428 158.431C43.6279 160.624 44.3741 162.93 44.9244 165.264L45.0397 165.765L45.0401 165.768C45.2876 166.95 45.4868 168.133 45.6381 169.315L45.7002 169.822L45.7006 169.828C45.8257 171.204 45.9226 172.635 45.699 174.009C45.6808 174.144 45.6565 174.281 45.6263 174.417C46.0618 173.417 46.3417 172.338 46.5085 171.254V171.252C46.6319 170.481 46.6942 169.676 46.7253 168.93V168.929C46.9095 164.938 46.3349 160.916 45.0628 157.164H42.0529Z" fill="white"/>
<path d="M34.4156 156.613L39.1083 178.2H39.358L39.5581 178.197C41.6288 178.128 43.8082 176.998 44.7766 175.175L44.7798 175.169L44.7831 175.163L44.7863 175.158C45.0054 174.802 45.1216 174.38 45.1809 173.935L45.1813 173.932L45.1817 173.931L45.1821 173.928V173.926C45.3941 172.624 45.3045 171.251 45.1793 169.874C45.0241 168.542 44.8069 167.209 44.5281 165.876C43.9378 163.236 43.0999 160.631 41.9538 158.184L41.953 158.182L41.951 158.178L41.9477 158.17C41.7968 157.808 41.6144 157.443 41.4305 157.106L41.2628 156.798L41.1792 156.645H45.431L45.4549 156.715L45.5033 156.855C46.83 160.709 47.4304 164.847 47.2408 168.953C47.2093 169.71 47.1454 170.536 47.018 171.333C46.7633 172.988 46.252 174.662 45.3124 176.087L45.3096 176.091L45.3068 176.095C43.9906 178.033 41.6381 179.137 39.358 179.137H35.1642L35.1468 179.055L35.1115 178.891L30.301 156.739L30.2734 156.613H34.4156ZM35.3145 178.847L35.3319 178.929H39.358L39.5663 178.926C41.7205 178.861 43.9048 177.792 45.1379 175.974L45.1403 175.97C46.0574 174.578 46.5609 172.936 46.8125 171.301C46.9383 170.514 47.0016 169.696 47.033 168.944C47.2213 164.864 46.625 160.751 45.3068 156.922L45.2828 156.852H41.5296L41.6132 157.006C41.7993 157.347 41.9845 157.719 42.1389 158.089L42.141 158.093L42.1422 158.095C43.2239 160.405 44.032 162.853 44.6174 165.336L44.7315 165.833L44.7319 165.834C45.0122 167.174 45.23 168.513 45.3859 169.853L45.3863 169.855L45.431 170.372C45.5296 171.58 45.5771 172.794 45.3876 173.959L45.3871 173.961V173.962C45.3256 174.423 45.2031 174.877 44.9633 175.267L44.9617 175.269L44.9601 175.272C43.9177 177.234 41.5485 178.408 39.358 178.408H38.941L34.2484 156.821H30.5312L35.3145 178.847ZM34.0807 157.029L38.7555 178.534L38.7689 178.595L38.7965 178.721H35.4996L30.817 157.155L30.7894 157.029H34.0807ZM35.6668 178.513H38.5383L33.9134 157.237H31.0472L35.6668 178.513ZM45.1338 157.06L45.1574 157.131C46.4335 160.895 47.0103 164.93 46.8255 168.934V168.935C46.7944 169.68 46.7321 170.486 46.6087 171.261V171.262L46.6075 171.269C46.4396 172.361 46.1578 173.448 45.718 174.458L45.5211 174.394C45.5506 174.261 45.5744 174.127 45.5922 173.995L45.5926 173.992C45.8139 172.633 45.7185 171.213 45.5934 169.837V169.835L45.5313 169.328C45.3804 168.148 45.1814 166.968 44.9345 165.789L44.9337 165.782L44.8196 165.288L44.7144 164.852C44.1767 162.672 43.4647 160.523 42.5441 158.474L42.3297 158.007L42.3285 158.003C42.2165 157.735 42.0885 157.468 41.9566 157.212L41.8787 157.06H45.1338ZM42.2181 157.268C42.3241 157.48 42.4267 157.699 42.5189 157.92L42.7337 158.388L42.7341 158.389C43.7222 160.589 44.4702 162.901 45.0218 165.24V165.241L45.1371 165.742L45.1383 165.746V165.747L45.2288 166.191C45.4058 167.08 45.5555 167.969 45.6782 168.858L45.7375 169.302L45.7996 169.81L45.8004 169.814V169.818L45.8455 170.337C45.9302 171.372 45.9786 172.436 45.8699 173.478C46.1115 172.754 46.2841 172.001 46.4009 171.244L46.4021 171.236C46.5246 170.47 46.5867 169.67 46.6177 168.926V168.924C46.8001 164.971 46.2356 160.988 44.9844 157.268H42.2181Z" fill="white"/>
<path d="M249.89 49.3891C248.007 34.0985 233.116 23.6654 211.453 16.48C210.672 16.1404 209.499 15.8396 209.792 14.8561C209.965 14.2582 210.661 13.6497 211.138 13.2004C213.067 11.4209 214.463 10.3064 215.508 9.23093C215.734 8.95498 215.787 8.68256 215.487 8.43845C215.494 8.43845 215.367 8.35354 215.367 8.35708C215.254 8.28986 215.144 8.23679 215.01 8.18372C204.359 5.73199 190.153 2.06677 179.378 0.135101C177.795 0.446432 178.117 2.45593 177.975 3.90292C177.763 5.36051 178.194 8.38184 176.717 8.95498C153.757 6.99854 128.194 6.71551 104.213 10.5824C101.545 10.9716 98.924 11.3926 96.3485 11.8313C95.1227 12.0718 93.9815 11.8313 93.01 10.9963C89.7209 7.69904 86.234 3.42177 84.0436 1.11155C83.4925 0.471197 82.7435 -0.0205651 81.878 0.000662036C81.2385 0.000662036 80.539 0.220009 79.896 0.396902C75.2327 1.70945 65.5632 4.36991 61.0306 5.64708C60.5925 5.7709 60.1862 5.90888 59.9107 6.06455C59.6104 6.23436 59.462 6.42895 59.4938 6.66244C59.5256 6.87472 59.6881 7.09053 59.8541 7.26034C61.3344 8.77454 64.2596 11.6685 67.8631 15.2559C68.2977 15.7017 68.9053 16.3491 69.0926 16.8621C69.5059 17.8208 68.4001 18.1994 67.6335 18.4258C51.6862 23.2479 37.9116 28.8448 24.5574 36.904C22.1939 38.4607 20.053 40.1341 17.799 41.9313C8.19672 49.2229 -0.985176 60.0345 0.0852795 72.4949C1.66093 90.3929 22.1444 99.2517 37.47 105.524C38.1447 106.423 36.94 107.212 36.0886 108.001C34.7921 109.122 33.3612 110.085 35.3361 110.782C45.2599 113.969 58.9815 118.211 68.9265 121.328C70.8131 121.922 71.5585 121.133 71.502 119.347C71.615 118.094 71.4702 115.713 72.0637 114.27C72.4947 113.318 73.3355 113.148 74.3318 113.247C94.8471 115.423 116.09 114.921 136.224 112.802C142.29 112.087 148.154 111.241 153.81 110.279C154.393 110.191 154.969 110.166 155.527 110.307C156.587 110.548 157.509 111.464 158.241 112.292C161.226 115.646 163.78 118.515 165.663 120.631C166.08 121.101 166.504 121.579 167.062 121.869C168.027 122.41 169.15 122.145 170.168 121.88C174.63 120.829 184.493 118.505 188.994 117.447C189.899 117.242 191.757 116.93 191.015 115.972C189.468 114.217 185.246 110.223 181.452 106.274C180.254 104.933 180.582 104.198 182.193 103.773C197.392 99.2234 211.587 93.4602 225.029 85.4823C230.138 82.0895 235.027 78.1271 239.341 73.7897C245.771 67.3154 250.83 58.8635 249.886 49.4528L249.879 49.3891H249.89ZM163.688 27.0546C166.719 27.6242 169.793 28.254 172.821 28.9474C173.524 29.1101 174.35 29.3861 174.52 30.1538C173.344 38.2803 167.204 50.6026 161.321 55.4601C155.701 60.0381 147.695 61.3825 140.612 59.9638C138.4 59.4473 135.528 58.8069 133.913 57.2644C129.981 53.072 115.793 37.4347 103.344 23.6866C102.916 23.1878 102.616 22.7561 102.588 22.4554C102.535 22.0698 102.927 21.9 103.577 21.8611C124.527 21.7054 145.522 23.7043 163.621 27.044L163.688 27.0546ZM59.4479 88.1039C58.8649 88.256 58.2785 88.1959 57.7132 88.0331C56.5156 87.6546 55.3886 87.2336 54.2404 86.8338C49.3404 85.1002 43.8962 82.8219 38.1836 79.7935C-13.5586 51.4234 34.0396 27.7127 73.7029 23.4531C75.0666 23.2833 76.2961 23.5699 77.3736 24.4826C86.5555 33.398 95.3594 42.2745 100.754 47.6273C101.093 48.02 101.605 48.3348 101.665 48.8054C101.729 49.5271 101.054 50.1675 100.56 50.7123C97.2318 54.1865 91.3178 60.3565 87.3115 64.5064C82.9555 68.8615 73.0812 77.1401 61.8502 86.6357C61.1648 87.223 60.2993 87.8845 59.5185 88.0827L59.4514 88.1003L59.4479 88.1039ZM75.0843 92.2786C74.8864 91.9 74.9147 91.3693 75.0596 90.7608C78.1261 79.4503 83.5525 67.8143 92.4871 63.6184C99.3585 60.4838 107.731 60.3848 114.603 63.6821C115.511 64.1809 115.783 64.4038 116.239 64.9062C119.846 68.8721 133.567 83.9752 146.254 97.9356C146.692 98.4061 147.441 99.2587 147.455 99.6833C147.557 100.239 146.459 100.278 145.911 100.267C122.594 100.433 98.0832 98.0346 76.3455 93.0852C75.7697 92.9366 75.3139 92.7102 75.1019 92.3245L75.0772 92.2821L75.0843 92.2786ZM232.554 74.2744C229.873 79.6024 224.747 82.9209 219.758 85.9033C217.854 87.0496 215.876 88.164 213.862 89.0556C203.518 93.492 189.107 97.6455 174.343 98.5759C173.312 98.3637 172.312 97.5429 171.524 96.7433C161.374 86.6392 150.726 76.0044 148.183 73.0892C147.483 72.3781 148.794 71.4017 149.447 70.5915C150.557 69.4169 151.821 68.1433 152.991 66.9121C157.375 62.4297 161.685 57.5474 166.204 53.3268C171.393 48.6603 179.307 41.482 187.055 34.5266C187.691 33.9924 188.387 33.6103 189.196 33.5431C216.6 40.9973 240.899 57.2467 232.583 74.2143L232.554 74.2709V74.2744Z" fill="white"/>
</svg>
